<svg xmlns="http://www.w3.org/2000/svg" width="94" height="61" viewBox="0 0 94 61">
  <defs>
    <style>
      .cls-1 {
        fill: #282828;
        fill-rule: evenodd;
      }
    </style>
  </defs>
  <path id="Ellipse_1_copy_4" data-name="Ellipse 1 copy 4" class="cls-1" d="M169.8,896a4.16,4.16,0,1,1-4.2,4.16A4.178,4.178,0,0,1,169.8,896Zm0,26.348a4.152,4.152,0,1,1-4.2,4.152A4.175,4.175,0,0,1,169.8,922.348Zm0,26.332a4.16,4.16,0,1,1-4.2,4.16A4.179,4.179,0,0,1,169.8,948.68ZM141.576,896a4.16,4.16,0,1,1-4.2,4.16A4.178,4.178,0,0,1,141.576,896Zm0,26.348a4.152,4.152,0,1,1-4.2,4.152A4.175,4.175,0,0,1,141.576,922.348Zm0,26.332a4.16,4.16,0,1,1-4.2,4.16A4.179,4.179,0,0,1,141.576,948.68ZM112.424,896a4.16,4.16,0,1,1-4.2,4.16A4.178,4.178,0,0,1,112.424,896Zm0,26.348a4.152,4.152,0,1,1-4.2,4.152A4.175,4.175,0,0,1,112.424,922.348Zm0,26.332a4.16,4.16,0,1,1-4.2,4.16A4.179,4.179,0,0,1,112.424,948.68ZM84.2,896a4.16,4.16,0,1,1-4.2,4.16A4.178,4.178,0,0,1,84.2,896Zm0,26.348A4.152,4.152,0,1,1,80,926.5,4.175,4.175,0,0,1,84.2,922.348Zm0,26.332a4.16,4.16,0,1,1-4.2,4.16A4.179,4.179,0,0,1,84.2,948.68Z" transform="translate(-80 -896)"/>
</svg>
